<?xml version="1.0" standalone="no"?>
<!DOCTYPE svg PUBLIC "-//W3C//DTD SVG 20010904//EN"
 "http://www.w3.org/TR/2001/REC-SVG-20010904/DTD/svg10.dtd">
<svg version="1.0" xmlns="http://www.w3.org/2000/svg"
 width="225.000000pt" height="225.000000pt" viewBox="0 0 225.000000 225.000000"
 preserveAspectRatio="xMidYMid meet">
<metadata>
Created by potrace 1.14, written by Peter Selinger 2001-2017
</metadata>
<g transform="translate(0.000000,225.000000) scale(0.100000,-0.100000)"
fill="#000000" stroke="none">
<path d="M514 2208 c-20 -24 -51 -73 -68 -111 l-32 -67 -30 31 c-92 97 -205
111 -291 36 -44 -39 -63 -82 -63 -142 0 -64 26 -108 118 -199 l80 -78 -26 -57
c-20 -44 -27 -76 -30 -146 -3 -80 -1 -95 20 -132 13 -23 126 -153 253 -290
341 -368 376 -403 400 -403 29 0 56 -31 49 -55 -4 -16 51 -81 239 -284 146
-158 260 -273 283 -285 32 -17 56 -21 134 -20 83 0 105 4 177 33 76 30 119 63
107 82 -8 14 44 41 65 34 42 -13 183 135 254 265 67 124 86 253 48 336 -10 22
-83 110 -161 195 -163 176 -168 181 -190 174 -23 -7 -53 29 -46 53 5 15 -63
94 -325 378 -476 516 -482 521 -547 540 -35 10 -77 15 -116 12 l-61 -5 -85 74
c-47 40 -92 73 -102 73 -9 0 -33 -19 -54 -42z"/>
</g>
</svg>
